<svg width="24" height="24" viewBox="0 0 24 24" fill="none" xmlns="http://www.w3.org/2000/svg">
<g id="Angle-up">
<path id="Vector" d="M7.05108 14.8351C7.23844 15.0213 7.49189 15.1259 7.75608 15.1259C8.02026 15.1259 8.27371 15.0213 8.46108 14.8351L12.0511 11.2951L15.5911 14.8351C15.7784 15.0213 16.0319 15.1259 16.2961 15.1259C16.5603 15.1259 16.8137 15.0213 17.0011 14.8351C17.0948 14.7421 17.1692 14.6315 17.22 14.5096C17.2707 14.3878 17.2969 14.2571 17.2969 14.1251C17.2969 13.9931 17.2707 13.8623 17.22 13.7405C17.1692 13.6186 17.0948 13.508 17.0011 13.4151L12.7611 9.17506C12.6681 9.08133 12.5575 9.00694 12.4357 8.95617C12.3138 8.9054 12.1831 8.87926 12.0511 8.87926C11.9191 8.87926 11.7884 8.9054 11.6665 8.95617C11.5446 9.00694 11.434 9.08133 11.3411 9.17506L7.05108 13.4151C6.95735 13.508 6.88295 13.6186 6.83219 13.7405C6.78142 13.8623 6.75528 13.9931 6.75528 14.1251C6.75528 14.2571 6.78142 14.3878 6.83219 14.5096C6.88295 14.6315 6.95735 14.7421 7.05108 14.8351Z" fill="#383838"/>
</g>
</svg>
