<svg width="24" height="24" viewBox="0 0 24 24" fill="none" xmlns="http://www.w3.org/2000/svg">
<g id="Angle-left">
<path id="Vector" d="M14.8576 16.9772C15.0439 16.7899 15.1484 16.5364 15.1484 16.2722C15.1484 16.0081 15.0439 15.7546 14.8576 15.5672L11.3176 11.9772L14.8576 8.43724C15.0439 8.24988 15.1484 7.99643 15.1484 7.73224C15.1484 7.46806 15.0439 7.21461 14.8576 7.02724C14.7647 6.93352 14.6541 6.85912 14.5322 6.80835C14.4104 6.75758 14.2797 6.73145 14.1476 6.73145C14.0156 6.73145 13.8849 6.75758 13.7631 6.80835C13.6412 6.85912 13.5306 6.93352 13.4376 7.02724L9.19765 11.2672C9.10392 11.3602 9.02952 11.4708 8.97875 11.5927C8.92799 11.7145 8.90185 11.8452 8.90185 11.9772C8.90185 12.1093 8.92799 12.24 8.97875 12.3618C9.02952 12.4837 9.10392 12.5943 9.19765 12.6872L13.4376 16.9772C13.5306 17.071 13.6412 17.1454 13.7631 17.1961C13.8849 17.2469 14.0156 17.273 14.1476 17.273C14.2797 17.273 14.4104 17.2469 14.5322 17.1961C14.6541 17.1454 14.7647 17.071 14.8576 16.9772Z" fill="#8999B9"/>
</g>
</svg>
