<svg width="20" height="20" viewBox="0 0 20 20" fill="none" xmlns="http://www.w3.org/2000/svg">
<g id="vuesax/outline/cards">
<g id="cards">
<path id="Vector" d="M15.8327 11.1333H1.66602C1.32435 11.1333 1.04102 10.85 1.04102 10.5083C1.04102 10.1666 1.32435 9.8833 1.66602 9.8833H15.8327C16.1743 9.8833 16.4577 10.1666 16.4577 10.5083C16.4577 10.85 16.1743 11.1333 15.8327 11.1333Z" fill="#8999B9"/>
<path id="Vector_2" d="M12.6827 18.1249H4.81604C1.95771 18.1249 1.04102 17.2166 1.04102 14.3916V8.56658C1.04102 6.32492 1.54937 4.99992 4.1327 4.84992C4.34937 4.84159 4.57437 4.83325 4.81604 4.83325H12.6827C15.541 4.83325 16.4577 5.74158 16.4577 8.56658V14.5249C16.4243 17.2499 15.5077 18.1249 12.6827 18.1249ZM4.81604 6.08325C4.59104 6.08325 4.38271 6.09159 4.19104 6.09992C2.69937 6.19159 2.29102 6.50825 2.29102 8.56658V14.3916C2.29102 16.5249 2.64104 16.8749 4.81604 16.8749H12.6827C14.8327 16.8749 15.1827 16.5416 15.2077 14.5166V8.56658C15.2077 6.43325 14.8577 6.08325 12.6827 6.08325H4.81604Z" fill="#8999B9"/>
<path id="Vector_3" d="M15.8327 15.15C15.6743 15.15 15.516 15.0917 15.4077 14.9833C15.2827 14.8667 15.2077 14.7 15.2077 14.525V8.56667C15.2077 6.43333 14.8577 6.08333 12.6827 6.08333H4.81604C4.59104 6.08333 4.38271 6.09167 4.19104 6.1C4.02437 6.10833 3.85767 6.04167 3.73267 5.925C3.60767 5.80833 3.54102 5.64167 3.54102 5.46667C3.57435 2.75 4.49104 1.875 7.31604 1.875H15.1827C18.041 1.875 18.9577 2.78333 18.9577 5.60833V11.4333C18.9577 13.675 18.4493 15 15.866 15.15C15.8577 15.15 15.841 15.15 15.8327 15.15ZM4.81604 4.83333H12.6827C15.541 4.83333 16.4577 5.74167 16.4577 8.56667V13.8333C17.4243 13.6583 17.7077 13.1583 17.7077 11.4333V5.60833C17.7077 3.475 17.3577 3.125 15.1827 3.125H7.31604C5.41604 3.125 4.92437 3.38333 4.81604 4.83333Z" fill="#8999B9"/>
<path id="Vector_4" d="M5.80055 15.4667H4.36719C4.02552 15.4667 3.74219 15.1833 3.74219 14.8417C3.74219 14.5 4.02552 14.2167 4.36719 14.2167H5.80055C6.14221 14.2167 6.42555 14.5 6.42555 14.8417C6.42555 15.1833 6.15055 15.4667 5.80055 15.4667Z" fill="#8999B9"/>
<path id="Vector_5" d="M10.4585 15.4667H7.5918C7.25013 15.4667 6.9668 15.1833 6.9668 14.8417C6.9668 14.5 7.25013 14.2167 7.5918 14.2167H10.4585C10.8001 14.2167 11.0835 14.5 11.0835 14.8417C11.0835 15.1833 10.8085 15.4667 10.4585 15.4667Z" fill="#8999B9"/>
</g>
</g>
</svg>
