<svg width="20" height="20" viewBox="0 0 20 20" fill="none" xmlns="http://www.w3.org/2000/svg">
<g id="vuesax/outline/card-pos">
<g id="card-pos">
<path id="Vector" d="M3.27526 13.8583C3.11693 13.8583 2.95859 13.8 2.83359 13.675C2.59193 13.4333 2.59193 13.0333 2.83359 12.7917L12.7919 2.83335C13.0336 2.59168 13.4336 2.59168 13.6753 2.83335C13.9169 3.07502 13.9169 3.47502 13.6753 3.71668L3.71693 13.6833C3.60026 13.8 3.43359 13.8583 3.27526 13.8583Z" fill="#8999B9"/>
<path id="Vector_2" d="M9.24987 15.8584C9.09154 15.8584 8.9332 15.8001 8.8082 15.6751C8.56654 15.4334 8.56654 15.0334 8.8082 14.7917L9.8082 13.7917C10.0499 13.5501 10.4499 13.5501 10.6915 13.7917C10.9332 14.0334 10.9332 14.4334 10.6915 14.6751L9.69154 15.6751C9.57487 15.7917 9.41654 15.8584 9.24987 15.8584Z" fill="#8999B9"/>
<path id="Vector_3" d="M11.4921 13.6167C11.3337 13.6167 11.1754 13.5583 11.0504 13.4333C10.8087 13.1917 10.8087 12.7917 11.0504 12.55L13.0421 10.5583C13.2837 10.3167 13.6837 10.3167 13.9254 10.5583C14.1671 10.8 14.1671 11.2 13.9254 11.4417L11.9337 13.4333C11.8171 13.55 11.6504 13.6167 11.4921 13.6167Z" fill="#8999B9"/>
<path id="Vector_4" d="M9.24911 18.9583C8.43245 18.9583 7.61578 18.4583 6.62411 17.4666L2.53245 13.375C0.540781 11.3833 0.549115 10.1 2.55745 8.09164L8.09078 2.5583C10.0991 0.549969 11.3824 0.541636 13.3741 2.5333L17.4658 6.62497C19.4574 8.61664 19.4491 9.89997 17.4408 11.9083L11.9074 17.4416C10.8991 18.45 10.0741 18.9583 9.24911 18.9583ZM10.7491 2.29164C10.3158 2.29164 9.76578 2.64997 8.97412 3.44164L3.44078 8.97497C2.64911 9.76664 2.29078 10.3166 2.29078 10.7416C2.29078 11.175 2.62411 11.7 3.41578 12.4916L7.50745 16.5833C8.29912 17.375 8.81578 17.7083 9.24911 17.7083C9.24911 17.7083 9.24911 17.7083 9.25745 17.7083C9.69078 17.7083 10.2324 17.35 11.0241 16.5583L16.5574 11.025C17.3491 10.2333 17.7074 9.6833 17.7074 9.2583C17.7074 8.82497 17.3741 8.29997 16.5824 7.5083L12.4908 3.41664C11.7074 2.62497 11.1824 2.29164 10.7491 2.29164Z" fill="#8999B9"/>
<path id="Vector_5" d="M18.3327 18.9584H1.66602C1.32435 18.9584 1.04102 18.675 1.04102 18.3334C1.04102 17.9917 1.32435 17.7084 1.66602 17.7084H18.3327C18.6743 17.7084 18.9577 17.9917 18.9577 18.3334C18.9577 18.675 18.6743 18.9584 18.3327 18.9584Z" fill="#8999B9"/>
</g>
</g>
</svg>
