<svg width="20" height="20" viewBox="0 0 20 20" fill="none" xmlns="http://www.w3.org/2000/svg">
<path d="M18.3333 5.2583H10C9.65833 5.2583 9.375 4.97497 9.375 4.6333C9.375 4.29163 9.65833 4.0083 10 4.0083H18.3333C18.675 4.0083 18.9583 4.29163 18.9583 4.6333C18.9583 4.9833 18.675 5.2583 18.3333 5.2583Z" fill="#C3C5C9"/>
<path d="M16.4828 9.37508H11.8578C10.0328 9.37508 9.38281 8.73341 9.38281 6.91675V3.50008C9.38281 1.68342 10.0328 1.04175 11.8578 1.04175H16.4828C18.3078 1.04175 18.9578 1.68342 18.9578 3.50008V6.92508C18.9578 8.73342 18.3078 9.37508 16.4828 9.37508ZM11.8495 2.29175C10.7161 2.29175 10.6245 2.38342 10.6245 3.50008V6.92508C10.6245 8.04175 10.7161 8.13341 11.8495 8.13341H16.4745C17.6078 8.13341 17.6995 8.04175 17.6995 6.92508V3.50008C17.6995 2.38342 17.6078 2.29175 16.4745 2.29175H11.8495Z" fill="#C3C5C9"/>
<path d="M9.99935 14.8416H1.66602C1.32435 14.8416 1.04102 14.5582 1.04102 14.2166C1.04102 13.8749 1.32435 13.5916 1.66602 13.5916H9.99935C10.341 13.5916 10.6243 13.8749 10.6243 14.2166C10.6243 14.5666 10.341 14.8416 9.99935 14.8416Z" fill="#C3C5C9"/>
<path d="M8.15077 18.9583H3.52578C1.70078 18.9583 1.05078 18.3167 1.05078 16.5V13.0833C1.05078 11.2667 1.70078 10.625 3.52578 10.625H8.15077C9.97577 10.625 10.6258 11.2667 10.6258 13.0833V16.5083C10.6258 18.3167 9.97577 18.9583 8.15077 18.9583ZM3.51744 11.875C2.38411 11.875 2.29244 11.9667 2.29244 13.0833V16.5083C2.29244 17.625 2.38411 17.7167 3.51744 17.7167H8.14243C9.27576 17.7167 9.36743 17.625 9.36743 16.5083V13.0833C9.36743 11.9667 9.27576 11.875 8.14243 11.875H3.51744Z" fill="#C3C5C9"/>
<path d="M12.5008 18.9584C12.2758 18.9584 12.0675 18.8334 11.9592 18.6417C11.8508 18.4417 11.8508 18.2084 11.9675 18.0084L12.8425 16.55C13.0175 16.2584 13.4008 16.1584 13.7008 16.3334C14.0008 16.5084 14.0925 16.8917 13.9175 17.1917L13.6925 17.5667C15.9925 17.025 17.7175 14.9584 17.7175 12.4917C17.7175 12.15 18.0008 11.8667 18.3425 11.8667C18.6842 11.8667 18.9675 12.15 18.9675 12.4917C18.9592 16.0584 16.0591 18.9584 12.5008 18.9584Z" fill="#C3C5C9"/>
<path d="M1.66602 8.12508C1.32435 8.12508 1.04102 7.84175 1.04102 7.50008C1.04102 3.94175 3.94102 1.04175 7.49935 1.04175C7.72435 1.04175 7.93268 1.16675 8.04101 1.35842C8.14934 1.55842 8.14936 1.79175 8.03269 1.99175L7.15768 3.45008C6.98268 3.74175 6.59935 3.84175 6.29935 3.66675C5.99935 3.49175 5.90767 3.10841 6.08267 2.80841L6.30769 2.43341C4.00769 2.97508 2.28267 5.04175 2.28267 7.50841C2.29101 7.84175 2.00768 8.12508 1.66602 8.12508Z" fill="#C3C5C9"/>
</svg>
