<svg width="34" height="35" viewBox="0 0 34 35" fill="none" xmlns="http://www.w3.org/2000/svg">
<g clip-path="url(#clip0_5045_1206)">
<path d="M25.192 23.2356C28.3581 18.7139 27.2579 12.4744 22.7362 9.3083C18.2145 6.14216 11.9751 7.24234 8.80893 11.7641C5.64279 16.2858 6.74297 22.5252 11.2647 25.6913C15.7864 28.8575 22.0258 27.7573 25.192 23.2356ZM14.2548 20.497L13.5181 16.3188C13.4812 16.1099 13.5329 15.9141 13.6418 15.7585C13.7508 15.6028 13.9171 15.4874 14.1261 15.4505C14.5299 15.3793 14.9231 15.6546 14.9944 16.0585L15.4167 18.454L18.3936 14.2026C18.6288 13.8668 19.1023 13.7833 19.4382 14.0184C19.774 14.2536 19.8575 14.7271 19.6223 15.063L16.6455 19.3144L19.041 18.892C19.4449 18.8208 19.838 19.0961 19.9093 19.5C19.9805 19.9039 19.7052 20.2971 19.3013 20.3683L15.1231 21.105C14.7192 21.1762 14.326 20.9009 14.2548 20.497Z" fill="#00BF7A"/>
</g>
<defs>
<clipPath id="clip0_5045_1206">
<rect width="24" height="24" fill="white" transform="translate(33.7129 14.5529) rotate(125)"/>
</clipPath>
</defs>
</svg>
