<svg width="20" height="20" viewBox="0 0 20 20" fill="none" xmlns="http://www.w3.org/2000/svg">
<g id="vuesax/outline/edit-2">
<g id="edit-2">
<path id="Vector" d="M4.61763 16.2664C4.1093 16.2664 3.6343 16.0914 3.29263 15.7664C2.8593 15.3581 2.65097 14.7414 2.72597 14.0747L3.0343 11.3747C3.09263 10.8664 3.40097 10.1914 3.7593 9.82472L10.601 2.58305C12.3093 0.774715 14.0926 0.724716 15.901 2.43305C17.7093 4.14138 17.7593 5.92472 16.051 7.73305L9.2093 14.9747C8.8593 15.3497 8.2093 15.6997 7.70096 15.7831L5.01763 16.2414C4.87597 16.2497 4.75097 16.2664 4.61763 16.2664ZM13.276 2.42472C12.6343 2.42472 12.076 2.82472 11.5093 3.42472L4.66763 10.6747C4.50097 10.8497 4.3093 11.2664 4.27597 11.508L3.96763 14.208C3.9343 14.483 4.00097 14.708 4.15097 14.8497C4.30097 14.9914 4.52597 15.0414 4.80097 14.9997L7.4843 14.5414C7.72597 14.4997 8.12597 14.283 8.29263 14.1081L15.1343 6.86638C16.1676 5.76638 16.5426 4.74972 15.0343 3.33305C14.3676 2.69138 13.7926 2.42472 13.276 2.42472Z" fill="#3C4351"/>
<path id="Vector_2" d="M14.4497 9.12479C14.433 9.12479 14.408 9.12479 14.3914 9.12479C11.7914 8.86646 9.69971 6.89146 9.29971 4.30813C9.24971 3.96646 9.48305 3.64979 9.82471 3.59146C10.1664 3.54146 10.483 3.77479 10.5414 4.11646C10.858 6.13313 12.4914 7.68313 14.5247 7.88313C14.8664 7.91646 15.1164 8.22479 15.083 8.56646C15.0414 8.88313 14.7664 9.12479 14.4497 9.12479Z" fill="#3C4351"/>
<path id="Vector_3" d="M17.5 18.9583H2.5C2.15833 18.9583 1.875 18.6749 1.875 18.3333C1.875 17.9916 2.15833 17.7083 2.5 17.7083H17.5C17.8417 17.7083 18.125 17.9916 18.125 18.3333C18.125 18.6749 17.8417 18.9583 17.5 18.9583Z" fill="#3C4351"/>
</g>
</g>
</svg>
