<svg width="8" height="8" viewBox="0 0 8 8" fill="none" xmlns="http://www.w3.org/2000/svg">
<path id="Vector (Stroke)" fill-rule="evenodd" clip-rule="evenodd" d="M4.91333 0.0738305C5.46477 0.0196932 5.97526 0.269361 6.43611 0.730275C6.89697 1.1912 7.14654 1.70171 7.09243 2.25313C7.04139 2.77308 6.73138 3.17925 6.43611 3.47456L3.40548 6.50562C3.28986 6.61753 3.14803 6.70743 3.0202 6.77169C2.89371 6.83528 2.73275 6.89793 2.56651 6.92168L1.40847 7.08714C1.04165 7.13763 0.667186 7.03901 0.397205 6.77008C0.126428 6.50036 0.0265399 6.12473 0.0805177 5.7545C0.0805806 5.75407 0.0806437 5.75363 0.080707 5.7532L0.2451 4.60228C0.245154 4.60189 0.245208 4.60151 0.245262 4.60112C0.2688 4.43371 0.330924 4.27192 0.395327 4.14377C0.459961 4.01516 0.551802 3.87089 0.668302 3.75438L3.69197 0.730275C3.98723 0.434973 4.39337 0.124877 4.91333 0.0738305ZM5.03057 1.26809C4.92508 1.27845 4.76715 1.35212 4.54056 1.57874L1.51795 4.60178C1.51795 4.60178 1.51796 4.60177 1.51795 4.60178C1.51776 4.60204 1.51232 4.60814 1.50303 4.62172C1.49193 4.63796 1.47946 4.6589 1.46755 4.68261C1.45562 4.70633 1.44636 4.72865 1.44009 4.74695C1.4351 4.76153 1.43351 4.76917 1.43335 4.76981L1.27272 5.89435L2.39431 5.7341C2.39556 5.7338 2.40271 5.73215 2.41583 5.72761C2.4341 5.72129 2.45676 5.71184 2.48124 5.69953C2.50565 5.68726 2.52779 5.6742 2.54558 5.66218C2.55987 5.65252 2.56766 5.64604 2.5701 5.64395L5.58752 2.62609C5.8141 2.39948 5.8878 2.24151 5.89816 2.13592C5.90544 2.06179 5.89409 1.88536 5.58752 1.57874C5.28094 1.27212 5.10458 1.26082 5.03057 1.26809Z" fill="#8999B9"/>
</svg>
