<svg width="20" height="20" viewBox="0 0 20 20" fill="#8999B9" xmlns="http://www.w3.org/2000/svg">
<g id="vuesax/outline/element-4">
<g id="element-4">
<path id="Vector" d="M16.475 11.4584H13.1083C11.4333 11.4584 10.625 10.6834 10.625 9.08342V3.41675C10.625 1.81675 11.4417 1.04175 13.1083 1.04175H16.475C18.15 1.04175 18.9583 1.81675 18.9583 3.41675V9.08342C18.9583 10.6834 18.1417 11.4584 16.475 11.4584ZM13.1083 2.29175C12.05 2.29175 11.875 2.57508 11.875 3.41675V9.08342C11.875 9.92508 12.05 10.2084 13.1083 10.2084H16.475C17.5333 10.2084 17.7083 9.92508 17.7083 9.08342V3.41675C17.7083 2.57508 17.5333 2.29175 16.475 2.29175H13.1083Z" fill="#8999B9"/>
<path id="Vector_2" d="M16.475 18.9583H13.1083C11.4333 18.9583 10.625 18.1833 10.625 16.5833V15.0833C10.625 13.4833 11.4417 12.7083 13.1083 12.7083H16.475C18.15 12.7083 18.9583 13.4833 18.9583 15.0833V16.5833C18.9583 18.1833 18.1417 18.9583 16.475 18.9583ZM13.1083 13.9583C12.05 13.9583 11.875 14.2416 11.875 15.0833V16.5833C11.875 17.4249 12.05 17.7083 13.1083 17.7083H16.475C17.5333 17.7083 17.7083 17.4249 17.7083 16.5833V15.0833C17.7083 14.2416 17.5333 13.9583 16.475 13.9583H13.1083Z" fill="#8999B9"/>
<path id="Vector_3" d="M6.89102 18.9584H3.52435C1.84935 18.9584 1.04102 18.1834 1.04102 16.5834V10.9167C1.04102 9.31675 1.85768 8.54175 3.52435 8.54175H6.89102C8.56602 8.54175 9.37435 9.31675 9.37435 10.9167V16.5834C9.37435 18.1834 8.55768 18.9584 6.89102 18.9584ZM3.52435 9.79175C2.46602 9.79175 2.29102 10.0751 2.29102 10.9167V16.5834C2.29102 17.4251 2.46602 17.7084 3.52435 17.7084H6.89102C7.94935 17.7084 8.12435 17.4251 8.12435 16.5834V10.9167C8.12435 10.0751 7.94935 9.79175 6.89102 9.79175H3.52435Z" fill="#8999B9"/>
<path id="Vector_4" d="M6.89102 7.29175H3.52435C1.84935 7.29175 1.04102 6.51675 1.04102 4.91675V3.41675C1.04102 1.81675 1.85768 1.04175 3.52435 1.04175H6.89102C8.56602 1.04175 9.37435 1.81675 9.37435 3.41675V4.91675C9.37435 6.51675 8.55768 7.29175 6.89102 7.29175ZM3.52435 2.29175C2.46602 2.29175 2.29102 2.57508 2.29102 3.41675V4.91675C2.29102 5.75841 2.46602 6.04175 3.52435 6.04175H6.89102C7.94935 6.04175 8.12435 5.75841 8.12435 4.91675V3.41675C8.12435 2.57508 7.94935 2.29175 6.89102 2.29175H3.52435Z" fill="#8999B9"/>
</g>
</g>
</svg>
