<svg width="14" height="18" viewBox="0 0 14 18" fill="none" xmlns="http://www.w3.org/2000/svg">
<g id="path">
<path id="path_2" d="M5.5 9H13" stroke="#EB482B" stroke-width="1.5" stroke-linecap="round" stroke-linejoin="round"/>
<path id="path_3" d="M10 6L13 9L10 12" stroke="#EB482B" stroke-width="1.5" stroke-linecap="round" stroke-linejoin="round"/>
<path id="path_4" d="M10 15C9.99725 15.397 9.83833 15.7769 9.55762 16.0576C9.27691 16.3383 8.89698 16.4972 8.5 16.5H2.5C2.10302 16.4972 1.72309 16.3383 1.44238 16.0576C1.16167 15.7769 1.00275 15.397 1 15V3C1.00275 2.60302 1.16167 2.22309 1.44238 1.94238C1.72309 1.66167 2.10302 1.50275 2.5 1.5H8.5C8.89698 1.50275 9.27691 1.66167 9.55762 1.94238C9.83833 2.22309 9.99725 2.60302 10 3" stroke="#EB482B" stroke-width="1.5" stroke-linecap="round" stroke-linejoin="round"/>
</g>
</svg>
