<svg width="20" height="20" viewBox="0 0 20 20" fill="none" xmlns="http://www.w3.org/2000/svg">
<path d="M7.30088 18.5583H7.40922C11.1092 18.5583 12.8925 17.1 13.2009 13.8333C13.2342 13.4917 12.9842 13.1833 12.6342 13.15C12.3009 13.1166 11.9842 13.375 11.9509 13.7167C11.7092 16.3333 10.4759 17.3083 7.40088 17.3083H7.29255C3.90088 17.3083 2.70088 16.1083 2.70088 12.7167V7.28332C2.70088 3.89165 3.90088 2.69165 7.29255 2.69165H7.40088C10.4925 2.69165 11.7259 3.68332 11.9509 6.34998C11.9925 6.69165 12.2842 6.94998 12.6342 6.91665C12.9842 6.89165 13.2342 6.58332 13.2092 6.24165C12.9259 2.92498 11.1342 1.44165 7.40922 1.44165H7.30088C3.20922 1.44165 1.45922 3.19165 1.45922 7.28332V12.7167C1.45922 16.8083 3.20922 18.5583 7.30088 18.5583Z" fill="#EB482B"/>
<path d="M7.49909 10.625H16.9824C17.3241 10.625 17.6074 10.3417 17.6074 10C17.6074 9.65833 17.3241 9.375 16.9824 9.375H7.49909C7.15742 9.375 6.87409 9.65833 6.87409 10C6.87409 10.3417 7.15742 10.625 7.49909 10.625Z" fill="#EB482B"/>
<path d="M15.1245 13.4167C15.2828 13.4167 15.4411 13.3584 15.5661 13.2334L18.3578 10.4417C18.5995 10.2 18.5995 9.80003 18.3578 9.55837L15.5661 6.7667C15.3245 6.52503 14.9245 6.52503 14.6828 6.7667C14.4411 7.00837 14.4411 7.40837 14.6828 7.65003L17.0328 10L14.6828 12.35C14.4411 12.5917 14.4411 12.9917 14.6828 13.2334C14.7995 13.3584 14.9661 13.4167 15.1245 13.4167Z" fill="#EB482B"/>
</svg>
