<svg width="29" height="25" viewBox="0 0 29 25" fill="none" xmlns="http://www.w3.org/2000/svg">
<g id="Layer_1" clip-path="url(#clip0_4834_3238)">
<path id="Vector" d="M4.53115 15.0096C4.00743 14.2676 4.18524 13.2416 4.92925 12.7186C5.67279 12.1957 6.6999 12.3732 7.22408 13.1161L7.24579 13.1475C7.76996 13.8895 7.5917 14.9155 6.84769 15.4384C6.1046 15.9618 5.07703 15.7838 4.55332 15.0409L4.53115 15.0096ZM16.895 15.9165L8.9347 4.7151C8.41145 3.96943 8.59294 2.94109 9.34019 2.41908C10.087 1.89707 11.1168 2.0783 11.6396 2.82396L23.5237 19.5924C24.047 20.338 23.8655 21.3664 23.1182 21.8884C22.3715 22.4109 21.3416 22.2296 20.8188 21.4835L16.895 15.9165ZM24.3035 18.3418L14.0194 3.67615C13.4967 2.93049 13.6782 1.90215 14.4249 1.37967C15.1722 0.857665 16.2021 1.03889 16.7248 1.78455L27.0089 16.4502C27.5317 17.1958 27.3502 18.2242 26.6034 18.7462C25.8566 19.2682 24.8267 19.087 24.3035 18.3413V18.3418ZM25.9961 12.4645L20.1295 4.09947C19.6067 3.35335 19.7882 2.32501 20.5349 1.803C21.2817 1.28099 22.3116 1.46222 22.8349 2.20788L28.701 10.5734C29.2243 11.3191 29.0428 12.3474 28.2955 12.8694C27.5488 13.3919 26.5189 13.2107 25.9961 12.4645ZM16.5013 23.797L6.21729 9.13143C5.69404 8.3853 5.87554 7.35696 6.62278 6.83495C7.36956 6.31294 8.39944 6.49417 8.92223 7.23983L19.2063 21.905C19.7295 22.6511 19.548 23.6795 18.8008 24.2015C18.054 24.7235 17.0241 24.5422 16.5013 23.7966V23.797ZM7.0061 18.547C6.48284 17.8013 6.66434 16.773 7.41158 16.251C8.15836 15.7285 9.18824 15.9097 9.71104 16.6558L13.0962 21.4835C13.6195 22.2292 13.438 23.2575 12.6908 23.7795C11.944 24.302 10.9141 24.1208 10.3913 23.3746L7.0061 18.547Z" fill="#4152A0"/>
<path id="Vector_2" d="M4.12464 14.4279C3.60093 13.6855 3.77966 12.6594 4.52274 12.1365C5.26629 11.6136 6.2934 11.7916 6.81757 12.534L6.83974 12.5654C7.36346 13.3078 7.18519 14.3334 6.44118 14.8568C5.6981 15.3797 4.67053 15.2017 4.14681 14.4588L4.12464 14.4279ZM20.4623 20.9383L8.52773 4.13342C8.00448 3.38776 8.18598 2.35942 8.93322 1.83741C9.68 1.3154 10.7099 1.49662 11.2327 2.24229L23.1672 19.0467C23.6905 19.7923 23.509 20.8207 22.7618 21.3431C22.015 21.8651 20.9851 21.6839 20.4623 20.9383ZM23.897 17.7596L13.6129 3.09447C13.0902 2.34881 13.2717 1.32047 14.0184 0.798459C14.7657 0.275988 15.7956 0.457216 16.3183 1.20334L26.6024 15.8685C27.1252 16.6142 26.9437 17.6425 26.1969 18.1645C25.4501 18.687 24.4202 18.5058 23.897 17.7596ZM25.5896 11.8824L19.723 3.51734C19.2002 2.77121 19.3817 1.74287 20.1284 1.22086C20.8752 0.698853 21.9051 0.880081 22.4284 1.62574L28.2945 9.99127C28.8178 10.7369 28.6363 11.7653 27.889 12.2873C27.1423 12.8098 26.1124 12.6285 25.5896 11.8824ZM16.0948 23.2149L5.81079 8.54975C5.28753 7.80363 5.46903 6.77575 6.21627 6.25328C6.96305 5.73127 7.99293 5.9125 8.51572 6.65816L18.7998 21.3233C19.323 22.0694 19.1415 23.0978 18.3943 23.6198C17.6475 24.1418 16.6176 23.9606 16.0948 23.2149ZM6.59959 17.9648C6.07634 17.2192 6.25784 16.1908 7.00508 15.6688C7.75186 15.1464 8.78174 15.3276 9.30453 16.0737L12.6902 20.9014C13.213 21.647 13.0315 22.6754 12.2847 23.1974C11.5375 23.7199 10.5076 23.5386 9.98481 22.7925L6.59959 17.9648Z" fill="#4152A0"/>
<g id="Group">
<path id="Vector_3" d="M4.14681 14.4597L4.12464 14.4288C3.60093 13.6864 3.77966 12.6603 4.52274 12.1374C5.26629 11.6145 6.2934 11.7925 6.81758 12.5349L6.83928 12.5663C6.91872 12.6788 6.98199 12.7973 7.02909 12.92C6.4712 12.4316 5.63113 12.368 4.99704 12.8134C4.36618 13.2575 4.14219 14.0636 4.40913 14.7512C4.31261 14.6668 4.22394 14.569 4.14681 14.4597ZM11.707 2.91878C11.1842 2.17312 10.1543 1.99189 9.40752 2.5139C8.66028 3.03637 8.47878 4.06425 9.00203 4.81037L8.52773 4.13388C8.00448 3.38776 8.18598 2.35942 8.93322 1.83741C9.68 1.3154 10.7099 1.49662 11.2327 2.24229L11.707 2.91878ZM14.4923 1.47495C13.7455 1.99696 13.564 3.0253 14.0868 3.77096L13.6125 3.09447C13.0897 2.34881 13.2712 1.32047 14.018 0.798459C14.7647 0.275988 15.7951 0.457216 16.3179 1.20334L16.7922 1.87983C16.2694 1.13371 15.2395 0.95248 14.4923 1.47495ZM20.6023 1.89689C19.8555 2.41936 19.6735 3.4477 20.1968 4.19337L19.7225 3.51688C19.1997 2.77075 19.3812 1.74241 20.128 1.2204C20.8748 0.698392 21.9046 0.87962 22.4279 1.62528L22.9022 2.30177C22.3794 1.55611 21.3495 1.37488 20.6023 1.89689ZM6.69057 6.92977C5.94333 7.45224 5.76137 8.48058 6.28508 9.22624L5.81079 8.54975C5.28753 7.80363 5.46903 6.77575 6.21627 6.25328C6.96305 5.73127 7.99293 5.91249 8.51572 6.65816L8.99002 7.33465C8.46723 6.58899 7.43735 6.40776 6.69057 6.92977ZM7.47892 16.3453C6.73167 16.8673 6.55018 17.8957 7.07343 18.6413L6.59913 17.9648C6.07588 17.2192 6.25738 16.1908 7.00462 15.6688C7.7514 15.1463 8.78128 15.3276 9.30407 16.0737L9.77837 16.7502C9.25558 16.0045 8.2257 15.8233 7.47892 16.3453Z" fill="#808BBF"/>
</g>
</g>
<defs>
<clipPath id="clip0_4834_3238">
<rect width="28.5517" height="24" fill="white" transform="translate(0.449219 0.5)"/>
</clipPath>
</defs>
</svg>
