<svg width="20" height="20" viewBox="0 0 20 20" fill="none" xmlns="http://www.w3.org/2000/svg">
<g id="vuesax/linear/more">
<g id="more">
<path id="Vector" d="M8.33398 15.8333C8.33398 16.75 9.08398 17.5 10.0007 17.5C10.9173 17.5 11.6673 16.75 11.6673 15.8333C11.6673 14.9167 10.9173 14.1667 10.0007 14.1667C9.08398 14.1667 8.33398 14.9167 8.33398 15.8333Z" fill="#8999B9"/>
<path id="Vector_2" d="M8.33398 4.16659C8.33398 5.08325 9.08398 5.83325 10.0007 5.83325C10.9173 5.83325 11.6673 5.08325 11.6673 4.16659C11.6673 3.24992 10.9173 2.49992 10.0007 2.49992C9.08398 2.49992 8.33398 3.24992 8.33398 4.16659Z" fill="#8999B9"/>
<path id="Vector_3" d="M8.33398 10.0001C8.33398 10.9167 9.08398 11.6667 10.0007 11.6667C10.9173 11.6667 11.6673 10.9167 11.6673 10.0001C11.6673 9.08341 10.9173 8.33341 10.0007 8.33341C9.08398 8.33341 8.33398 9.08341 8.33398 10.0001Z" fill="#8999B9"/>
</g>
</g>
</svg>
