<svg width="32" height="32" viewBox="0 0 32 32" fill="none" xmlns="http://www.w3.org/2000/svg">
<path d="M13.334 25.3333C13.334 26.8 14.534 28 16.0007 28C17.4673 28 18.6673 26.8 18.6673 25.3333C18.6673 23.8667 17.4673 22.6667 16.0007 22.6667C14.534 22.6667 13.334 23.8667 13.334 25.3333Z" fill="white"/>
<path d="M13.334 6.66659C13.334 8.13325 14.534 9.33325 16.0007 9.33325C17.4673 9.33325 18.6673 8.13325 18.6673 6.66659C18.6673 5.19992 17.4673 3.99992 16.0007 3.99992C14.534 3.99992 13.334 5.19992 13.334 6.66659Z" fill="white"/>
<path d="M13.334 16.0001C13.334 17.4667 14.534 18.6667 16.0007 18.6667C17.4673 18.6667 18.6673 17.4667 18.6673 16.0001C18.6673 14.5334 17.4673 13.3334 16.0007 13.3334C14.534 13.3334 13.334 14.5334 13.334 16.0001Z" fill="white"/>
</svg>
