<svg width="175" height="115" viewBox="0 0 175 115" fill="none" xmlns="http://www.w3.org/2000/svg">
<g id="Empty State Illustration">
<g id="No Results">
<g id="circle">
<g id="Group 42">
<path id="Fill 28" fill-rule="evenodd" clip-rule="evenodd" d="M0.121094 87.2435C1.02115 86.9629 2.39977 85.8628 2.71902 84.6788C3.00853 85.7248 4.22189 86.9629 5.31694 87.0568C4.08456 87.4927 2.90628 88.7896 2.71902 89.8082C2.59179 88.77 0.961703 87.3946 0.121094 87.2435Z" fill="#EBECEE"/>
</g>
</g>
<g id="search">
<g id="documents">
<path id="Fill 1" fill-rule="evenodd" clip-rule="evenodd" d="M118.624 97.2533H61.1999C57.158 97.2533 53.8496 93.9351 53.8496 89.8797V7.98964C53.8496 3.93423 57.158 0.617676 61.1999 0.617676H118.624C122.668 0.617676 125.976 3.93423 125.976 7.98964V89.8797C125.976 93.9351 122.668 97.2533 118.624 97.2533Z" fill="#E0E2EE"/>
<path id="Fill 3" fill-rule="evenodd" clip-rule="evenodd" d="M113.724 100.755H56.2995C52.2577 100.755 48.9492 97.4363 48.9492 93.3809V11.4909C48.9492 7.43545 52.2577 4.1189 56.2995 4.1189H113.724C117.767 4.1189 121.076 7.43545 121.076 11.4909V93.3809C121.076 97.4363 117.767 100.755 113.724 100.755Z" fill="#E8EBF2"/>
<path id="Fill 5" fill-rule="evenodd" clip-rule="evenodd" d="M108.955 103.519H51.4123C47.3622 103.519 44.0469 100.214 44.0469 96.1756V14.6246C44.0469 10.586 47.3622 7.2832 51.4123 7.2832H108.955C113.007 7.2832 116.323 10.586 116.323 14.6246V96.1756C116.323 100.214 113.007 103.519 108.955 103.519Z" fill="#D8DBEA"/>
<path id="Fill 8" fill-rule="evenodd" clip-rule="evenodd" d="M108.955 103.519H51.4123C47.3622 103.519 44.0469 100.214 44.0469 96.1756V14.6246C44.0469 10.586 47.3622 7.2832 51.4123 7.2832H108.955C113.007 7.2832 116.323 10.586 116.323 14.6246V96.1756C116.323 100.214 113.007 103.519 108.955 103.519Z" fill="#F1F2F7"/>
<path id="Fill 11" fill-rule="evenodd" clip-rule="evenodd" d="M100.661 32.1293H58.1585C56.9447 32.1293 55.9512 31.1841 55.9512 30.0293C55.9512 28.873 56.9447 27.9277 58.1585 27.9277H100.661C101.875 27.9277 102.868 28.873 102.868 30.0293C102.868 31.1841 101.875 32.1293 100.661 32.1293Z" fill="#E0E2EE"/>
<path id="Fill 13" fill-rule="evenodd" clip-rule="evenodd" d="M100.661 44.734H58.1585C56.9447 44.734 55.9512 43.7888 55.9512 42.634C55.9512 41.4777 56.9447 40.5325 58.1585 40.5325H100.661C101.875 40.5325 102.868 41.4777 102.868 42.634C102.868 43.7888 101.875 44.734 100.661 44.734Z" fill="#E0E2EE"/>
<path id="Fill 15" fill-rule="evenodd" clip-rule="evenodd" d="M100.661 57.3385H58.1585C56.9447 57.3385 55.9512 56.3933 55.9512 55.2385C55.9512 54.0838 56.9447 53.137 58.1585 53.137H100.661C101.875 53.137 102.868 54.0838 102.868 55.2385C102.868 56.3933 101.875 57.3385 100.661 57.3385Z" fill="#E0E2EE"/>
<path id="Fill 17" fill-rule="evenodd" clip-rule="evenodd" d="M100.661 69.9432H58.1585C56.9447 69.9432 55.9512 68.998 55.9512 67.8433C55.9512 66.6869 56.9447 65.7417 58.1585 65.7417H100.661C101.875 65.7417 102.868 66.6869 102.868 67.8433C102.868 68.998 101.875 69.9432 100.661 69.9432Z" fill="#E0E2EE"/>
<path id="Fill 19" fill-rule="evenodd" clip-rule="evenodd" d="M80.3442 82.5479H58.168C56.949 82.5479 55.9512 81.6026 55.9512 80.4479C55.9512 79.2915 56.949 78.3463 58.168 78.3463H80.3442C81.5632 78.3463 82.561 79.2915 82.561 80.4479C82.561 81.6026 81.5632 82.5479 80.3442 82.5479Z" fill="#E0E2EE"/>
</g>
<g id="search_2">
<path id="Fill 21" fill-rule="evenodd" clip-rule="evenodd" d="M125.106 66.2577C116.607 74.7551 103.45 75.7137 93.8975 69.1531C92.6768 68.2996 91.5149 67.341 90.4313 66.2577C89.8735 65.7018 89.3478 65.128 88.8524 64.524C87.8616 63.3177 86.9937 62.0313 86.2826 60.702C85.0298 58.457 84.178 56.0747 83.7128 53.6123C82.2123 45.89 84.456 37.5779 90.4313 31.6053C96.421 25.615 104.734 23.3859 112.458 24.8719C114.919 25.3513 117.304 26.2029 119.549 27.4413C120.88 28.1683 122.149 29.036 123.357 30.0267C123.96 30.5202 124.534 31.0476 125.09 31.6053C126.175 32.6887 127.148 33.8486 127.985 35.0709C134.549 44.6196 133.588 57.7763 125.106 66.2577Z" fill="white" fill-opacity="0.1"/>
<path id="Fill 23" fill-rule="evenodd" clip-rule="evenodd" d="M122.729 64.5841C113.887 73.4276 99.5579 73.426 90.7144 64.5841C81.8824 55.7521 81.8824 41.4215 90.7259 32.5796C99.5579 23.7476 113.887 23.7476 122.719 32.5796C131.561 41.4215 131.561 55.7521 122.729 64.5841ZM127.266 28.0367C115.916 16.6873 97.5252 16.6873 86.1758 28.0367C74.8282 39.3843 74.8183 57.7871 86.166 69.1364C96.4952 79.4624 112.685 80.3936 124.072 71.9153C125.184 71.0861 126.255 70.1565 127.277 69.1364C128.297 68.1147 129.227 67.0436 130.055 65.9314C138.533 54.5426 137.593 38.3642 127.266 28.0367Z" fill="#E0E2EE"/>
<path id="Fill 25" fill-rule="evenodd" clip-rule="evenodd" d="M171.93 111.918L171.453 112.394C168.301 115.548 163.139 115.548 159.985 112.394L130.879 83.2883L142.823 71.3438L171.93 100.45C175.083 103.604 175.083 108.764 171.93 111.918Z" fill="#4152A0"/>
<path id="Fill 27" fill-rule="evenodd" clip-rule="evenodd" d="M130.683 65.0415L139.284 73.6425L133.177 79.7469L124.578 71.146C125.713 70.2998 126.804 69.3512 127.849 68.3103C128.89 67.2694 129.838 66.1764 130.683 65.0415Z" fill="#E0E2EE"/>
<path id="Fill 29" fill-rule="evenodd" clip-rule="evenodd" d="M171.495 100.092L159.627 111.959L157.49 109.82L169.357 97.9536L171.495 100.092Z" fill="#E2F5FF"/>
<path id="Fill 31" fill-rule="evenodd" clip-rule="evenodd" d="M143.484 71.7547L131.29 83.9484L129.479 82.137L141.672 69.9432L143.484 71.7547Z" fill="#E2F5FF"/>
<path id="Fill 33" fill-rule="evenodd" clip-rule="evenodd" d="M116.874 29.5374L86.9705 59.4394C85.8443 57.4211 85.0786 55.2794 84.6621 53.0656L110.5 27.2275C112.712 27.66 114.856 28.4241 116.874 29.5374Z" fill="white" fill-opacity="0.5"/>
<path id="Fill 35" fill-rule="evenodd" clip-rule="evenodd" d="M126.678 36.6449L94.3492 67.1423C93.1915 66.3802 92.0895 65.5223 91.0619 64.5529C90.5329 64.0538 90.0326 63.542 89.5645 63.0015L122.287 32.1294C122.86 32.5727 123.404 33.0446 123.932 33.5437C124.959 34.5131 125.884 35.5511 126.678 36.6449Z" fill="white" fill-opacity="0.5"/>
</g>
</g>
</g>
</g>
</svg>
