<svg width="40" height="40" viewBox="0 0 40 40" fill="none" xmlns="http://www.w3.org/2000/svg">
<g id="Notification">
<path id="Vector" fill-rule="evenodd" clip-rule="evenodd" d="M17.75 31.5H22.25C22.8711 31.5 23.3751 30.9813 23.3751 30.3421C23.3751 29.7029 22.8711 29.1842 22.25 29.1842H17.75C17.1289 29.1842 16.6249 29.7029 16.6249 30.3421C16.6249 30.9813 17.1289 31.5 17.75 31.5ZM26.7501 20.8057V16.4451C26.7501 12.6089 23.7295 9.5 20.0023 9.5H19.9977C16.2705 9.5 13.2499 12.6089 13.2499 16.4451V20.8057L11.1191 25.1929C10.9447 25.5519 10.9627 25.978 11.1675 26.3196C11.3733 26.6612 11.7345 26.8684 12.1249 26.8684H27.8751C28.2655 26.8684 28.6267 26.6612 28.8325 26.3196C29.0373 25.978 29.0553 25.5519 28.8809 25.1929L26.7501 20.8057ZM24.5001 21.0789C24.5001 21.2584 24.5406 21.4356 24.6193 21.5965L26.0548 24.5526H13.9452L15.3807 21.5965C15.4594 21.4356 15.4999 21.2584 15.4999 21.0789V16.4451C15.4999 13.8884 17.5137 11.8158 19.9977 11.8158H20.0023C22.4863 11.8158 24.5001 13.8884 24.5001 16.4451V21.0789Z" fill="#8999B9"/>
</g>
</svg>
