<svg width="20" height="20" viewBox="0 0 20 20" fill="none" xmlns="http://www.w3.org/2000/svg">
<path d="M8.78361 18.2833C8.59194 18.2833 8.40861 18.2 8.28361 18.0333L7.44193 16.9083C7.26693 16.675 7.03362 16.5416 6.78362 16.5249C6.53362 16.5083 6.28359 16.625 6.08359 16.8333C4.87526 18.125 3.9586 18.0166 3.51694 17.85C3.06694 17.675 2.30859 17.0999 2.30859 15.2499V5.86663C2.30859 2.16663 3.37526 1.04163 6.86693 1.04163H13.1586C16.6503 1.04163 17.7169 2.16663 17.7169 5.86663V9.41662C17.7169 9.75828 17.4336 10.0416 17.0919 10.0416C16.7503 10.0416 16.4669 9.75828 16.4669 9.41662V5.86663C16.4669 2.8583 15.9419 2.29163 13.1586 2.29163H6.86693C4.08359 2.29163 3.55859 2.8583 3.55859 5.86663V15.2499C3.55859 16.1249 3.77526 16.6083 3.97526 16.6833C4.12526 16.7416 4.53361 16.6583 5.16695 15.9833C5.62528 15.5 6.22527 15.2416 6.85027 15.2749C7.46694 15.3083 8.05027 15.6333 8.44194 16.1583L9.29193 17.2833C9.50026 17.5583 9.44194 17.95 9.16694 18.1583C9.04194 18.25 8.90861 18.2833 8.78361 18.2833Z" fill="#8999B9"/>
<path d="M13.3327 6.45837H6.66602C6.32435 6.45837 6.04102 6.17504 6.04102 5.83337C6.04102 5.49171 6.32435 5.20837 6.66602 5.20837H13.3327C13.6743 5.20837 13.9577 5.49171 13.9577 5.83337C13.9577 6.17504 13.6743 6.45837 13.3327 6.45837Z" fill="#8999B9"/>
<path d="M12.5 9.79163H7.5C7.15833 9.79163 6.875 9.50829 6.875 9.16663C6.875 8.82496 7.15833 8.54163 7.5 8.54163H12.5C12.8417 8.54163 13.125 8.82496 13.125 9.16663C13.125 9.50829 12.8417 9.79163 12.5 9.79163Z" fill="#8999B9"/>
<path fill-rule="evenodd" clip-rule="evenodd" d="M15.9133 11.0738C16.4648 11.0197 16.9753 11.2694 17.4361 11.7303C17.897 12.1912 18.1465 12.7017 18.0924 13.2531C18.0414 13.7731 17.7314 14.1792 17.4361 14.4746L14.4055 17.5056C14.2899 17.6175 14.148 17.7074 14.0202 17.7717C13.8937 17.8353 13.7327 17.8979 13.5665 17.9217L12.4085 18.0871C12.0416 18.1376 11.6672 18.039 11.3972 17.7701C11.1264 17.5004 11.0265 17.1247 11.0805 16.7545C11.0806 16.7541 11.0806 16.7536 11.0807 16.7532L11.2451 15.6023C11.2452 15.6019 11.2452 15.6015 11.2453 15.6011C11.2688 15.4337 11.3309 15.2719 11.3953 15.1438C11.46 15.0152 11.5518 14.8709 11.6683 14.7544L14.692 11.7303C14.9872 11.435 15.3934 11.1249 15.9133 11.0738ZM16.0306 12.2681C15.9251 12.2784 15.7672 12.3521 15.5406 12.5787L12.518 15.6018C12.518 15.6018 12.518 15.6018 12.518 15.6018C12.5178 15.602 12.5123 15.6081 12.503 15.6217C12.4919 15.638 12.4795 15.6589 12.4675 15.6826C12.4556 15.7063 12.4464 15.7286 12.4401 15.7469C12.4351 15.7615 12.4335 15.7692 12.4333 15.7698L12.2727 16.8944L13.3943 16.7341C13.3956 16.7338 13.4027 16.7321 13.4158 16.7276C13.4341 16.7213 13.4568 16.7118 13.4812 16.6995C13.5057 16.6873 13.5278 16.6742 13.5456 16.6622C13.5599 16.6525 13.5677 16.646 13.5701 16.6439L16.5875 13.6261C16.8141 13.3995 16.8878 13.2415 16.8982 13.1359C16.9054 13.0618 16.8941 12.8854 16.5875 12.5787C16.2809 12.2721 16.1046 12.2608 16.0306 12.2681Z" fill="#8999B9"/>
<path fill-rule="evenodd" clip-rule="evenodd" d="M14.8386 11.9223C15.1577 11.8329 15.4888 12.019 15.5783 12.3381C15.7476 12.9421 16.2208 13.4166 16.8308 13.5894C17.1496 13.6798 17.3348 14.0115 17.2445 14.3303C17.1542 14.6491 16.8225 14.8343 16.5036 14.744C15.4942 14.458 14.7056 13.6707 14.4228 12.662C14.3334 12.3429 14.5195 12.0118 14.8386 11.9223Z" fill="#8999B9"/>
</svg>

