<svg width="18" height="18" viewBox="0 0 18 18" fill="none" xmlns="http://www.w3.org/2000/svg">
<g id="path">
<path id="path_2" d="M10.5998 13.8C9.1191 13.7999 7.68425 13.2865 6.53971 12.3471C5.39517 11.4078 4.61173 10.1006 4.32292 8.64837C4.0341 7.19614 4.2578 5.68869 4.95583 4.38288C5.65385 3.07707 6.78301 2.05368 8.15099 1.4871C9.51897 0.920511 11.0411 0.84578 12.458 1.27564C13.8749 1.7055 15.0989 2.61335 15.9215 3.8445C16.7441 5.07566 17.1143 6.55395 16.9692 8.02748C16.824 9.50102 16.1724 10.8786 15.1254 11.9256C14.531 12.5199 13.8255 12.9913 13.049 13.3129C12.2725 13.6345 11.4402 13.8 10.5998 13.8Z" stroke="#4152A0" stroke-width="1.5" stroke-linecap="round" stroke-linejoin="round"/>
<path id="path_3" d="M0.999219 17L4.19922 13.8" stroke="#4152A0" stroke-width="1.5" stroke-linecap="round" stroke-linejoin="round"/>
</g>
</svg>
