<svg width="14" height="12" viewBox="0 0 14 12" fill="none" xmlns="http://www.w3.org/2000/svg">
<g id="Group">
<path id="Vector" d="M3.85463 0.145917C3.80819 0.0993539 3.75301 0.0624112 3.69227 0.0372047C3.63152 0.0119983 3.5664 -0.000976562 3.50063 -0.000976562C3.43486 -0.000976562 3.36974 0.0119983 3.309 0.0372047C3.24825 0.0624112 3.19308 0.0993539 3.14663 0.145917L0.146632 3.14592C0.052745 3.2398 0 3.36714 0 3.49992C0 3.63269 0.052745 3.76003 0.146632 3.85392C0.240518 3.9478 0.367856 4.00055 0.500632 4.00055C0.633407 4.00055 0.760745 3.9478 0.854632 3.85392L3.00063 1.70692V11.4999C3.00063 11.6325 3.05331 11.7597 3.14708 11.8535C3.24085 11.9472 3.36802 11.9999 3.50063 11.9999C3.63324 11.9999 3.76042 11.9472 3.85418 11.8535C3.94795 11.7597 4.00063 11.6325 4.00063 11.4999V1.70692L6.14663 3.85392C6.24052 3.9478 6.36786 4.00055 6.50063 4.00055C6.63341 4.00055 6.76075 3.9478 6.85463 3.85392C6.94852 3.76003 7.00126 3.63269 7.00126 3.49992C7.00126 3.36714 6.94852 3.2398 6.85463 3.14592L3.85463 0.145917ZM10.1526 11.8599C10.2459 11.9503 10.3707 12.0009 10.5006 12.0009C10.6305 12.0009 10.7554 11.9503 10.8486 11.8599L13.8486 8.95992C13.9441 8.86762 13.999 8.74118 14.0013 8.6084C14.0035 8.47563 13.9529 8.34739 13.8606 8.25192C13.7683 8.15644 13.6419 8.10154 13.5091 8.09929C13.3763 8.09703 13.2481 8.14762 13.1526 8.23992L11.0006 10.3209V0.500917C11.0006 0.368309 10.948 0.241132 10.8542 0.147364C10.7604 0.0535957 10.6332 0.000917196 10.5006 0.000917196C10.368 0.000917196 10.2408 0.0535957 10.1471 0.147364C10.0533 0.241132 10.0006 0.368309 10.0006 0.500917V10.3209L7.84863 8.24092C7.80161 8.19462 7.74589 8.15809 7.68468 8.13344C7.62347 8.10878 7.55799 8.09649 7.49201 8.09726C7.42603 8.09803 7.36085 8.11185 7.30024 8.13793C7.23962 8.16401 7.18477 8.20183 7.13884 8.24921C7.09291 8.29659 7.05682 8.35259 7.03263 8.41399C7.00845 8.47539 6.99666 8.54096 6.99795 8.60694C6.99923 8.67291 7.01356 8.73798 7.0401 8.79839C7.06665 8.8588 7.1049 8.91336 7.15263 8.95892L10.1526 11.8589V11.8599Z" fill="#8999B9"/>
</g>
</svg>
