<svg width="20" height="20" viewBox="0 0 20 20" fill="none" xmlns="http://www.w3.org/2000/svg">
<g id="vuesax/outline/trash">
<g id="trash">
<path id="Vector" d="M17.4991 5.60839C17.4824 5.60839 17.4574 5.60839 17.4324 5.60839C13.0241 5.16673 8.62408 5.00006 4.26574 5.44173L2.56574 5.60839C2.21574 5.64173 1.90741 5.39173 1.87408 5.04173C1.84074 4.69173 2.09074 4.39173 2.43241 4.35839L4.13241 4.19173C8.56574 3.74173 13.0574 3.91673 17.5574 4.35839C17.8991 4.39173 18.1491 4.70006 18.1157 5.04173C18.0907 5.36673 17.8157 5.60839 17.4991 5.60839Z" fill="#EB482B"/>
<path id="Vector_2" d="M7.0846 4.76675C7.05127 4.76675 7.01794 4.76675 6.97627 4.75842C6.64294 4.70008 6.4096 4.37508 6.46794 4.04175L6.65127 2.95008C6.7846 2.15008 6.96794 1.04175 8.9096 1.04175H11.0929C13.0429 1.04175 13.2263 2.19175 13.3513 2.95841L13.5346 4.04175C13.5929 4.38341 13.3596 4.70842 13.0263 4.75842C12.6846 4.81675 12.3596 4.58342 12.3096 4.25008L12.1263 3.16675C12.0096 2.44175 11.9846 2.30008 11.1013 2.30008H8.91794C8.0346 2.30008 8.01794 2.41675 7.89294 3.15841L7.70127 4.24175C7.65127 4.55008 7.3846 4.76675 7.0846 4.76675Z" fill="#EB482B"/>
<path id="Vector_3" d="M12.676 18.9584H7.32597C4.41764 18.9584 4.30097 17.3501 4.20931 16.0501L3.66764 7.6584C3.64264 7.31673 3.90931 7.01673 4.25097 6.99173C4.60097 6.97506 4.89264 7.2334 4.91764 7.57506L5.45931 15.9667C5.55097 17.2334 5.58431 17.7084 7.32597 17.7084H12.676C14.426 17.7084 14.4593 17.2334 14.5426 15.9667L15.0843 7.57506C15.1093 7.2334 15.4093 6.97506 15.751 6.99173C16.0926 7.01673 16.3593 7.3084 16.3343 7.6584L15.7926 16.0501C15.701 17.3501 15.5843 18.9584 12.676 18.9584Z" fill="#EB482B"/>
<path id="Vector_4" d="M11.3824 14.375H8.60742C8.26576 14.375 7.98242 14.0917 7.98242 13.75C7.98242 13.4083 8.26576 13.125 8.60742 13.125H11.3824C11.7241 13.125 12.0074 13.4083 12.0074 13.75C12.0074 14.0917 11.7241 14.375 11.3824 14.375Z" fill="#EB482B"/>
<path id="Vector_5" d="M12.0827 11.0417H7.91602C7.57435 11.0417 7.29102 10.7584 7.29102 10.4167C7.29102 10.0751 7.57435 9.79175 7.91602 9.79175H12.0827C12.4243 9.79175 12.7077 10.0751 12.7077 10.4167C12.7077 10.7584 12.4243 11.0417 12.0827 11.0417Z" fill="#EB482B"/>
</g>
</g>
</svg>
