<svg width="68" height="52" viewBox="0 0 68 52" fill="none" xmlns="http://www.w3.org/2000/svg">
<path id="Vector" d="M45.3333 37.2312H36.8333V51.2703H31.1667V37.2312H22.6667L34 26L45.3333 37.2312ZM55.1905 20.6427C54.5898 9.54906 45.3503 0.729736 34 0.729736C22.6497 0.729736 13.4102 9.54906 12.8095 20.6427C5.52783 21.9427 0 28.2406 0 35.8273C0 44.3546 6.9785 51.2703 15.5833 51.2703H25.5V45.6547H15.5833C10.115 45.6547 5.66667 41.2464 5.66667 35.8273C5.66667 27.9739 12.6905 25.065 18.2268 25.3823C17.7537 13.539 24.4828 6.34535 34 6.34535C43.7835 6.34535 50.6912 14.1988 49.7732 25.3823C54.7173 25.2531 62.3333 27.491 62.3333 35.8273C62.3333 41.2464 57.885 45.6547 52.4167 45.6547H42.5V51.2703H52.4167C61.0215 51.2703 68 44.3546 68 35.8273C68 28.2406 62.4722 21.9427 55.1905 20.6427Z" fill="#C3C5C9"/>
</svg>
