<svg width="20" height="20" viewBox="0 0 20 20" fill="none" xmlns="http://www.w3.org/2000/svg">
<g id="vuesax/outline/strongbox-2">
<g id="strongbox-2">
<path id="Vector" d="M12.4993 18.9584H7.49935C2.97435 18.9584 1.04102 17.0251 1.04102 12.5001V7.50008C1.04102 2.97508 2.97435 1.04175 7.49935 1.04175H12.4993C17.0243 1.04175 18.9577 2.97508 18.9577 7.50008V12.5001C18.9577 17.0251 17.0243 18.9584 12.4993 18.9584ZM7.49935 2.29175C3.65768 2.29175 2.29102 3.65841 2.29102 7.50008V12.5001C2.29102 16.3417 3.65768 17.7084 7.49935 17.7084H12.4993C16.341 17.7084 17.7077 16.3417 17.7077 12.5001V7.50008C17.7077 3.65841 16.341 2.29175 12.4993 2.29175H7.49935Z" fill="#8999B9"/>
<path id="Vector_2" d="M13.3327 16.4584H6.66602C4.64935 16.4584 3.54102 15.3501 3.54102 13.3334V6.66675C3.54102 4.65008 4.64935 3.54175 6.66602 3.54175H13.3327C15.3493 3.54175 16.4577 4.65008 16.4577 6.66675V13.3334C16.4577 15.3501 15.3493 16.4584 13.3327 16.4584ZM6.66602 4.79175C5.34935 4.79175 4.79102 5.35008 4.79102 6.66675V13.3334C4.79102 14.6501 5.34935 15.2084 6.66602 15.2084H13.3327C14.6493 15.2084 15.2077 14.6501 15.2077 13.3334V6.66675C15.2077 5.35008 14.6493 4.79175 13.3327 4.79175H6.66602Z" fill="#8999B9"/>
<path id="Vector_3" d="M6.23268 12.7084H4.16602C3.82435 12.7084 3.54102 12.4251 3.54102 12.0834C3.54102 11.7417 3.82435 11.4584 4.16602 11.4584H6.23268C7.04101 11.4584 7.69101 10.8001 7.69101 10.0001C7.69101 9.20008 7.03268 8.54175 6.23268 8.54175H4.16602C3.82435 8.54175 3.54102 8.25841 3.54102 7.91675C3.54102 7.57508 3.82435 7.29175 4.16602 7.29175H6.23268C7.72435 7.29175 8.94101 8.50841 8.94101 10.0001C8.94101 11.4917 7.73268 12.7084 6.23268 12.7084Z" fill="#8999B9"/>
<path id="Vector_4" d="M15.834 8.94995H13.334C12.9923 8.94995 12.709 8.66662 12.709 8.32495C12.709 7.98328 12.9923 7.69995 13.334 7.69995H15.834C16.1757 7.69995 16.459 7.98328 16.459 8.32495C16.459 8.66662 16.1757 8.94995 15.834 8.94995Z" fill="#8999B9"/>
<path id="Vector_5" d="M15.834 12.2917H13.334C12.9923 12.2917 12.709 12.0084 12.709 11.6667C12.709 11.3251 12.9923 11.0417 13.334 11.0417H15.834C16.1757 11.0417 16.459 11.3251 16.459 11.6667C16.459 12.0084 16.1757 12.2917 15.834 12.2917Z" fill="#8999B9"/>
<path id="Vector_6" d="M6.04232 10.8333C5.93398 10.8333 5.82565 10.8083 5.72565 10.7667C5.62565 10.725 5.53398 10.6667 5.45065 10.5917C5.29231 10.4334 5.20898 10.225 5.20898 10C5.20898 9.78335 5.30065 9.56666 5.45065 9.40833C5.68398 9.18333 6.05066 9.10003 6.35899 9.23336C6.46732 9.27503 6.55899 9.33333 6.63399 9.40833C6.78399 9.56666 6.87565 9.78335 6.87565 10C6.87565 10.225 6.79232 10.4334 6.63399 10.5917C6.55066 10.6667 6.45899 10.725 6.35899 10.7667C6.25899 10.8083 6.15065 10.8333 6.04232 10.8333Z" fill="#8999B9"/>
</g>
</g>
</svg>
