<svg width="20" height="20" viewBox="0 0 20 20" fill="none" xmlns="http://www.w3.org/2000/svg">
<g id="vuesax/outline/wallet">
<g id="wallet">
<path id="Vector" d="M4.33275 8.71665C4.17442 8.71665 4.00775 8.64998 3.89109 8.53331C3.71609 8.34998 3.65775 8.08331 3.75775 7.84998L5.30775 4.14998C5.34109 4.07498 5.35775 4.02498 5.38275 3.98331C6.61609 1.14165 8.19109 0.449979 10.9744 1.51665C11.1328 1.57498 11.2578 1.69998 11.3244 1.85831C11.3911 2.01665 11.3911 2.19165 11.3244 2.34998L8.88275 8.01665C8.78275 8.24998 8.55775 8.39165 8.30775 8.39165H5.93275C5.45775 8.39165 5.00775 8.48331 4.57442 8.66665C4.49942 8.69998 4.41609 8.71665 4.33275 8.71665ZM8.84109 2.29165C7.80775 2.29165 7.17442 2.96665 6.51609 4.49998C6.50775 4.52498 6.49109 4.54998 6.48275 4.57498L5.39109 7.16665C5.57442 7.14998 5.74942 7.14165 5.93275 7.14165H7.89109L9.89942 2.47498C9.50775 2.34998 9.15775 2.29165 8.84109 2.29165Z" fill="#8999B9"/>
<path id="Vector_2" d="M15.2415 8.55829C15.1832 8.55829 15.1165 8.54995 15.0582 8.53329C14.7415 8.44162 14.4082 8.39162 14.0582 8.39162H8.3082C8.09986 8.39162 7.89986 8.28329 7.7832 8.10829C7.67486 7.93329 7.64986 7.70829 7.7332 7.51662L10.1499 1.90829C10.2749 1.60829 10.6415 1.39995 10.9499 1.50829C11.0499 1.54162 11.1415 1.58329 11.2415 1.62495L13.2082 2.44995C14.3582 2.92495 15.1249 3.42495 15.6249 4.02495C15.7249 4.14162 15.8082 4.26662 15.8915 4.39995C15.9832 4.54162 16.0665 4.70829 16.1249 4.88329C16.1499 4.94162 16.1915 5.04995 16.2165 5.16662C16.4499 5.95829 16.3332 6.92495 15.8332 8.17495C15.7249 8.40829 15.4915 8.55829 15.2415 8.55829ZM9.2582 7.14162H14.0665C14.3332 7.14162 14.5915 7.16662 14.8499 7.20829C15.0832 6.48329 15.1332 5.92495 14.9999 5.47495C14.9832 5.39995 14.9665 5.36662 14.9582 5.33329C14.9082 5.19995 14.8749 5.12495 14.8332 5.05829C14.7749 4.96662 14.7332 4.89162 14.6665 4.81662C14.3082 4.38329 13.6749 3.98329 12.7249 3.59162L11.0832 2.90829L9.2582 7.14162Z" fill="#8999B9"/>
<path id="Vector_3" d="M13.25 18.9583H6.75C6.51667 18.9583 6.3 18.9416 6.08333 18.9166C3.15833 18.7249 1.49167 17.0499 1.29167 14.0916C1.26667 13.9083 1.25 13.6833 1.25 13.4583V11.8333C1.25 9.95827 2.36667 8.2666 4.09167 7.5166C4.68333 7.2666 5.3 7.1416 5.94167 7.1416H14.075C14.55 7.1416 15.0083 7.20827 15.4333 7.3416C17.3917 7.93327 18.7667 9.78327 18.7667 11.8333V13.4583C18.7667 13.6416 18.7583 13.8166 18.75 13.9833C18.5667 17.2416 16.6667 18.9583 13.25 18.9583ZM5.93333 8.3916C5.45833 8.3916 5.00833 8.48327 4.575 8.6666C3.30833 9.2166 2.49167 10.4583 2.49167 11.8333V13.4583C2.49167 13.6333 2.50833 13.8083 2.525 13.9749C2.68333 16.3499 3.85 17.5166 6.19167 17.6749C6.4 17.6999 6.56667 17.7166 6.74167 17.7166H13.2417C15.9917 17.7166 17.3417 16.5083 17.475 13.9249C17.4833 13.7749 17.4917 13.6249 17.4917 13.4583V11.8333C17.4917 10.3249 16.4833 8.97493 15.05 8.53327C14.7333 8.4416 14.4 8.3916 14.05 8.3916H5.93333Z" fill="#8999B9"/>
<path id="Vector_4" d="M1.86719 12.4584C1.52552 12.4584 1.24219 12.1751 1.24219 11.8334V9.39175C1.24219 6.76674 3.10052 4.50008 5.66719 4.00008C5.89219 3.95841 6.12552 4.04174 6.27552 4.21674C6.41719 4.39174 6.45885 4.64174 6.36719 4.85008L4.90885 8.33341C4.84219 8.48341 4.72552 8.60008 4.58385 8.66674C3.31719 9.21674 2.50052 10.4584 2.50052 11.8334C2.49219 12.1751 2.21719 12.4584 1.86719 12.4584ZM4.66719 5.68341C3.60052 6.28341 2.82552 7.33341 2.58385 8.55841C2.95052 8.18341 3.37552 7.86674 3.85885 7.63341L4.66719 5.68341Z" fill="#8999B9"/>
<path id="Vector_5" d="M18.133 12.4584C17.7913 12.4584 17.508 12.1751 17.508 11.8334C17.508 10.3251 16.4996 8.97506 15.0663 8.53339C14.8996 8.48339 14.758 8.36673 14.683 8.20839C14.608 8.05006 14.5996 7.86673 14.6663 7.70839C15.058 6.73339 15.158 6.02506 14.9996 5.47506C14.983 5.40006 14.9663 5.36673 14.958 5.33339C14.8496 5.09173 14.908 4.80839 15.0996 4.62506C15.2913 4.44173 15.583 4.40006 15.8163 4.52506C17.633 5.47506 18.758 7.34173 18.758 9.39173V11.8334C18.758 12.1751 18.4746 12.4584 18.133 12.4584ZM16.0413 7.57506C16.5663 7.81673 17.033 8.15839 17.4246 8.56673C17.2663 7.75006 16.8746 7.00839 16.2996 6.42506C16.258 6.77506 16.1746 7.15839 16.0413 7.57506Z" fill="#8999B9"/>
</g>
</g>
</svg>
