<svg width="34" height="35" viewBox="0 0 34 35" fill="none" xmlns="http://www.w3.org/2000/svg">
<path d="M9.92849 10.4287C6.02526 14.3319 6.02526 20.6676 9.92849 24.5708C13.8317 28.4741 20.1674 28.4741 24.0706 24.5708C27.9739 20.6676 27.9739 14.3319 24.0706 10.4287C20.1674 6.52546 13.8317 6.52546 9.92849 10.4287ZM20.224 15.0249L20.224 19.2675C20.224 19.4797 20.1391 19.6635 20.0048 19.7979C19.8704 19.9322 19.6866 20.0171 19.4744 20.0171C19.0643 20.0171 18.7249 19.6776 18.7249 19.2675L18.7249 16.8351L15.055 20.505C14.7651 20.7949 14.2843 20.7949 13.9944 20.505C13.7044 20.215 13.7044 19.7342 13.9944 19.4443L17.6642 15.7744L15.2318 15.7744C14.8217 15.7744 14.4823 15.435 14.4823 15.0249C14.4823 14.6148 14.8217 14.2753 15.2318 14.2753L19.4744 14.2753C19.8846 14.2753 20.224 14.6148 20.224 15.0249Z" fill="#EB482B"/>
</svg>
